<?xml version="1.0" encoding="UTF-8"?><svg id="_レイヤー_2" xmlns="http://www.w3.org/2000/svg" viewBox="0 0 620 620"><defs><style>.cls-1{fill:#f3ffff;}.cls-1,.cls-2,.cls-3,.cls-4,.cls-5,.cls-6,.cls-7{stroke-miterlimit:10;}.cls-1,.cls-3{stroke:#000;}.cls-2,.cls-3,.cls-5,.cls-7{fill:#fff;stroke-width:2px;}.cls-2,.cls-4,.cls-6{stroke:aqua;}.cls-8{fill:red;}.cls-9{fill:aqua;}.cls-4{stroke-width:11px;}.cls-4,.cls-6{fill:none;}.cls-5{stroke:red;}.cls-6{stroke-width:7px;}.cls-7{stroke:#93278f;}</style></defs><path class="cls-3" d="M316.7,99.33s-.09,0-.14,0c.05,0,.09,0,.14,0h0Z"/><path class="cls-3" d="M316.7,497.73h0s-.09,0-.14,0c.05,0,.09,0,.14,0Z"/><path class="cls-7" d="M316.56,99.34c-77.29.11-139.93,89.25-139.93,199.2,0-109.77,62.76-199.09,139.93-199.2Z"/><path class="cls-7" d="M316.7,100.33c-76.69,0-139.07,88.91-139.07,198.2s62.39,198.2,139.07,198.2,139.07-88.91,139.07-198.2-62.39-198.2-139.07-198.2ZM316.63,477.2c-65.51,0-118.81-80.05-118.81-178.45,0-.04,0-.07,0-.11s0-.07,0-.11c0-98.44,52.97-178.24,118.31-178.24.08,0,.17,0,.25,0,.08,0,.17,0,.25,0,65.51,0,118.8,80.05,118.8,178.45s-53.3,178.45-118.8,178.45Z"/><path class="cls-7" d="M456.77,298.53c0-110.01-62.71-199.2-140.07-199.2h0c77.24,0,140.07,89.36,140.07,199.2Z"/><path class="cls-3" d="M434.44,298.75s0-.07,0-.11c0,17.15-1.63,33.74-4.63,49.43,3.01-15.67,4.64-32.22,4.64-49.33Z"/><path class="cls-7" d="M176.63,298.53c0,109.95,62.64,199.09,139.93,199.2-77.17-.11-139.93-89.43-139.93-199.2Z"/><path class="cls-7" d="M316.7,497.73h0c77.36,0,140.07-89.18,140.07-199.2,0,109.84-62.84,199.2-140.07,199.2Z"/><path class="cls-7" d="M316.13,476.77c53.93,0,99.42-54.36,113.67-128.69-14.22,73.92-59.57,128.12-113.17,128.12-64.96,0-117.81-79.6-117.81-177.45s52.85-177.45,117.81-177.45,117.77,79.55,117.8,177.34c0-.04,0-.07,0-.11,0-98.31-52.83-178.03-118.05-178.23-65.37.2-118.52,80.12-118.55,178.34.04,98.39,52.99,178.13,118.3,178.13Z"/><path class="cls-2" d="M134.94,121.06l25.46,5.5c-.24,4.32.34,282.39-.14,286.46-1.12,11.04-10.13,75.31-67.98,80.97-15.14-.69-49.78-.8-58.16-34.51-.18,0-7.51-29.94,4.56-48.29,9.25-13.24,23-30.33,56.12-27.52v18.22c-8.41.82-27.66-1.98-38.81,19.5-7.1,15.78-4.48,61.17,45.01,48.65,1.46-.55,33.63-15.3,37.64-46.82,3.48-27.3-3.16-289.72-3.7-302.17Z"/><path class="cls-5" d="M425.12,65.61h34.75v142.49s2.09-38.92-34.75-82.37c-.35-4.52,0-60.12,0-60.12Z"/><path class="cls-5" d="M459.87,402.72l1.39,59.22h134.84v32.53h-171.33v-30.58s29.89-34.06,35.1-61.17Z"/><line class="cls-6" x1="225.31" y1="198.54" x2="225.31" y2="369.42"/><line class="cls-6" x1="404.8" y1="198.54" x2="404.8" y2="369.42"/><line class="cls-6" x1="244.49" y1="182.15" x2="244.49" y2="386.03"/><line class="cls-6" x1="384.64" y1="182.15" x2="384.64" y2="386.03"/><path class="cls-1" d="M348.83,251.23v-7.8h-12.74v-13.76h-7.3v13.76h-8.76v-25.61h-7.3v25.61h-28.79v7.8h28.79v2.79h-28.79v7.8h28.79v2.79h-28.79v7.8h28.79v4.49h-28.79v7.8h64.89v-7.8h-12.74v-4.49h12.74v-7.8h-12.74v-2.79h12.74v-7.8h-12.74v-2.79h12.74ZM328.79,276.91h-8.76v-4.49h8.76v4.49ZM328.79,264.62h-8.76v-2.79h8.76v2.79ZM328.79,254.02h-8.76v-2.79h8.76v2.79Z"/><path class="cls-1" d="M348.83,298.53v-7.8h-64.89v7.8h25.36v4.75h-25.36v7.8h25.36v4.75h-25.36v7.8h25.36v116.77h13.61v-116.77h5.88v21.39h7.3v-21.39h12.74v-7.8h-12.74v-4.75h12.74v-7.8h-12.74v-4.75h12.74ZM328.79,315.82h-5.88v-4.75h5.88v4.75ZM328.79,303.28h-5.88v-4.75h5.88v4.75Z"/><path class="cls-1" d="M324.77,217.82v12.47h-17.28v-12.47c-13.56,2.5-23.52,10.75-23.52,20.55h64.31c0-9.8-9.95-18.05-23.52-20.55Z"/><path class="cls-1" d="M307.47,351.47v-14.14h17.28v14.14c13.57-2.84,23.53-12.19,23.53-23.3h-64.34c0,11.11,9.96,20.46,23.53,23.3Z"/><rect class="cls-4" x="267.12" y="200.17" width="99.17" height="174.79" rx="49.58" ry="49.58"/><path class="cls-9" d="M24.56,88.17c.44-.32.95-.57,1.45-.76l.44-.13c.57-.19,1.14-.32,1.77-.38.25,0,.5,0,.76-.06.25,0,.5-.06.76-.13h.57c.5,0,1.01-.06,1.51,0,.13,0,.25-.06.38-.06h1.01c.06,0,.13-.06.19-.13l.63-.5.31-.25.57-.44,1.58-1.51c.57-.63,1.07-1.26,1.58-1.89l1.32-1.83.57-.95,1.14-1.96,1.01-1.89c.38-.82.76-1.64,1.07-2.52l.19-.44c.5-1.32,1.01-2.65,1.39-3.97l.13-.44c.44-1.51.88-3.03,1.2-4.6.25-1.01.44-2.02.63-3.03.19-1.01.32-2.02.44-3.03l.19-1.89.19-1.7.19-1.13v-.19c0-.57,0-1.14.06-1.7.06-1.13.06-2.27.06-3.41v-4.41c0-.76-.06-1.51-.13-2.27v-.19c0-.82,0-1.64-.06-2.46,0-.57-.06-1.13-.13-1.7v-1.14c0-.5,0-1.01-.06-1.51,0-.44-.06-.88-.13-1.33-.06-.44-.06-.88-.06-1.32l-.19-1.32v-.95c0-.44,0-.88-.06-1.32,0-.38-.06-.76-.13-1.13-.06-.57-.06-1.07-.06-1.64v-1.64c.06-.06.13-.06.19,0,.19.06.32.19.38.38,0,.19,0,.38.06.5,0,.19.06.32.13.44,0,.06,0,.13-.06.19-.06.06-.06.13-.06.19v.38l.19,1.51.19,1.32.19,1.7c.06.31.06.63.06.95l.19,1.14c0,.32.06.63.06.95l.38,4.16c.06.44.06.88.06,1.33l.19,1.7v.19c0,.63,0,1.26.06,1.89l.13,1.64c.06.76.06,1.51.06,2.27v7.19c0,.44-.06.88-.13,1.32v.95l-.19,1.89-.19,1.32-.19.95-.38,2.08-.44,2.27-.63,2.46c-.32,1.33-.69,2.65-1.14,3.91l-.76,2.08-.95,2.27-.63,1.26-.44.82c-.25.57-.5,1.07-.82,1.58l-.44.76c-.5.82-.95,1.64-1.51,2.4l-.57.76-.76.95-.57.57c-.13.19-.25.38-.44.57l-1.51,1.51-.88.76-.57.57-.13.19h.19l1.14.19.76.19c.13,0,.32.06.44.06l.88.13c.13,0,.32,0,.44.06l1.32.38,1.77.44.44.13.88.25.44.13,1.26.38.38.13.76.19.38.13,1.2.38,1.77.5c.76.25,1.58.5,2.4.69l1.58.38,1.7.32,2.27.5c.13.06.32.13.44.13l.88.13c.95.19,1.89.38,2.84.5l.76.19,1.51.19.76.19.88.13c.13,0,.32.06.44.06l.95.19c.19.06.38.13.57.13l1.26.13c.13,0,.32.06.44.06.25.06.5.13.76.13.25.06.5.06.76.06h.76c.32.06.63.13.95.13.32.06.63.06.95.06.25,0,.5.06.76.13h5.93c.44,0,.95,0,1.45-.06.38,0,.76-.06,1.14-.13l1.01-.19.44-.13c.25-.06.5-.19.76-.32.25-.13.5-.06.69.19.06.13.06.25-.06.32l-.76.44c-.44.13-.88.25-1.32.31-.32.06-.57.13-.88.13h-.44c-.38,0-.76.06-1.13.06h-1.7c-.38,0-.76.06-1.13,0-.32.06-.63,0-.95,0s-.63-.06-.95-.06-.63,0-.95-.06h-1.14c-.25,0-.5,0-.76-.06-.32-.06-.63-.06-.95-.06-.13,0-.25-.06-.38-.06-.25,0-.5,0-.76-.06-.25,0-.5-.06-.76-.13l-.88-.13c-.13,0-.32-.06-.44-.06-.25,0-.5,0-.69-.06-.57-.13-1.2-.13-1.77-.19-.25,0-.5-.06-.76-.13l-.76-.13-.88-.19c-.13,0-.31-.06-.44-.06s-.31-.06-.44-.06l-.88-.13c-.13,0-.25-.06-.38-.06l-1.14-.13c-.13,0-.25-.06-.38-.06l-.76-.13c-.13,0-.25,0-.38-.06-.13,0-.25-.06-.38-.13-.13,0-.25-.06-.38-.06l-.76-.13-1.32-.32-.44-.13-1.83-.44-1.14-.19-1.51-.38-2.08-.57-.76-.19-1.89-.57-1.32-.38c-.76-.25-1.51-.5-2.27-.69l-1.89-.57-1.58-.38-1.14-.25c-.13,0-.25,0-.38-.06l-2.46-.5c-.5-.13-1.01-.19-1.51-.25-.25,0-.44.06-.63.25-.19.19-.44.32-.69.44-.38.25-.76.44-1.14.63-.57.38-1.2.69-1.83.95l-.82.32c-.44.13-.88.32-1.32.38-.44.06-.69.13-1.01.13s-.57.06-.95,0c-.44,0-.88-.13-1.26-.32-.25-.13-.44-.38-.57-.69l-.19-.19c-.06,0-.13-.06-.19-.06v-.19c.06-.06.13-.13.13-.19.13-.32.38-.57.63-.82ZM27.84,89.62c.57-.19,1.14-.44,1.7-.69.06,0,.13,0,.19-.06l1.14-.57-.25-.13c.5-.25.95-.57,1.39-.95h-1.7c-.44,0-.95.06-1.39.06h-.32l-1.51.32c-.57.13-1.07.32-1.58.57-.32.19-.63.44-.88.76-.06.06-.13.19-.13.25-.06.25.06.63.44.69.5.13,1.01.13,1.51.06.5-.06.95-.19,1.39-.31Z"/><path class="cls-9" d="M79.55,93.15c0,.25.19.57-.25.63-.44.06-.63-.19-.69-.57-.06-.5-.13-1.01-.13-1.51l-.13-2.33c-.38-8.51-.5-17.09-.57-26.93l.19-20.87c0-1.58.06-3.09.06-4.67,0-.95-.06-1.89-.06-2.84,0-.19-.13-.5.19-.5s.5.19.57.44c.06.57.13,1.2.13,1.83.06,3.09.06,6.18.06,9.27-.06,7.69-.06,15.39-.06,23.08,0,6.5.13,12.99.25,19.49,0,.82.06,1.64.06,2.46,0,.95.06,1.89.13,2.84l.25.19Z"/><path class="cls-9" d="M143.18,22.84l-1.01,2.59-.57,1.51-7.88,20.94c-2.21,5.99-4.41,12.49-6.75,19.8-2.14,6.69-3.66,12.17-4.86,17.22-.44,2.02-.88,4.04-1.26,6.05l-.25,1.51-.25,1.32-.76,4.04c-.25,1.26-.5,2.33-.76,3.34-.13.44-.25.76-.38,1.01-.25.38-.57.63-.88.63-.19,0-.32-.06-.44-.19-.13-.13-.32-.25-.44-.44-.63-1.07-1.01-2.27-1.39-3.41l-.06-.06v-.06l-.5-1.64c-1.89-6.12-2.96-12.42-3.97-18.04-.57-3.22-1.07-6.62-1.64-10.78-.25-1.64-.5-3.34-.69-4.98l-.25-1.7c-.38-2.78-.69-5.61-1.14-8.39l-.38-2.84c-.82-5.36-1.7-10.91-3.47-16.21v-.06c-.38-1.2-.82-2.46-1.58-3.53-.38-.5-.69-.76-1.01-.76s-.63.25-1.01.76c-.69,1.01-1.2,2.21-1.45,3.53v.19c0,.13,0,.25-.06.32-.06.06-.13.06-.25.06s-.25-.06-.32-.13c-.06-.13-.06-.25-.06-.38.19-1.32.63-3.03,1.96-4.35.57-.57,1.45-.57,2.27,0,.95.69,1.45,1.7,1.83,2.59.25.57.44,1.07.63,1.64,1.2,3.28,1.95,6.56,2.52,9.4l.32,1.7c1.13,6.18,1.95,12.49,2.77,18.6l.32,2.21.25,1.64c.69,4.98,1.51,10.09,2.46,15.51.06.5.13,1.01.25,1.51.88,4.67,2.02,10.03,3.85,15.39v.19c.19.57.38,1.2.82,1.77.63-2.21,1.01-4.29,1.32-6.24,1.32-8.2,3.28-16.59,5.87-24.91.32-1.13.69-2.21,1.07-3.34.19-.5.31-1.01.44-1.51.19-.76.44-1.51.69-2.27.32-.82.57-1.64.82-2.46l.57-1.51,1.01-3.03.69-2.02,1.14-3.03,1.51-3.97.57-1.39.57-1.45,1.45-3.97,1.01-2.65.95-2.46,1.51-3.97.13-.38.44-1.2.88-2.33.5-1.32c.38-.88.76-1.77,1.07-2.65.5-1.26,1.01-2.27,1.51-3.22.13-.25.38-.69.88-.44,0,.06.06.06.13.06,0,.06-.06.13-.06.13-.5.82-.82,1.64-1.2,2.52ZM144.56,20.31l-.13-.38v.25c.06.06.13.06.13.13Z"/><path class="cls-9" d="M147.21,88.93v-.95l.25-1.07c.13-.69.25-1.39.44-2.08,1.14-3.59,2.96-6.81,5.11-9.9,4.86-6.87,10.72-12.74,17.72-17.47l.82-.57c.57-.38,1.14-.76,1.7-1.2-.25.06-.5.13-.76.13-.25.06-.5.06-.76.06-.88.06-1.7.19-2.59.19-1.26.06-2.58,0-3.85-.32-1.77-.38-3.22-1.2-3.72-3.15-.25-1.07-.06-2.14.32-3.22.76-2.02,2.02-3.72,3.47-5.3,3.66-3.91,7.95-6.94,12.68-9.33,1.45-.76,3.03-1.45,4.54-2.02l1.13-.44c.5-.19,1.01-.44,1.58-.38.44.06.57-.38.88-.5.63-.25,1.32-.63,1.95-.57.95.06,1.64-.57,2.52-.63s1.77-.25,2.65-.32c.44,0,.95-.06,1.39-.06,2.33-.06,4.67.13,6.87,1.01,1.58.63,2.9,1.64,3.47,3.34.57,1.83-.19,3.41-1.2,4.79-1.01,1.39-2.21,2.71-3.59,3.78-1.01.76-1.89,1.7-3.03,2.21.13-.63.32-.88,1.26-1.64,1.83-1.45,3.41-3.15,4.79-5.11.44-.63.76-1.32.95-2.02.57-1.83,0-3.28-1.7-4.16-1.89-1.01-3.97-1.32-6.12-1.45h-1.26c-1.7.06-3.41.32-5.11.57-.88.13-1.77.38-2.59.63l-1.26.38c-4.54,1.39-8.77,3.53-12.74,6.18-3.47,2.33-6.69,4.98-9.21,8.39-1.01,1.39-1.83,2.84-2.08,4.54-.19,1.58.31,2.46,1.83,3.03,1.58.57,3.22.63,4.86.57,2.52-.13,4.98-.44,7.44-.88.44-.06.82-.19,1.2-.38.95-.38,1.89-.57,2.84-.76.5-.13.76.13.88.57.13.5-.32.57-.63.63-2.14.38-4.1,1.33-5.99,2.4l-2.27,1.26c-1.32.76-2.46,1.64-3.66,2.52-.88.69-1.77,1.45-2.65,2.21l-.88.76c-4.04,3.59-7.76,7.57-10.91,11.98-.32.38-.57.82-.82,1.2-2.21,3.22-4.16,6.56-5.05,10.41-.19.69-.25,1.39-.25,2.08,0,2.84,1.26,4.29,4.04,4.73,2.4.38,4.73-.13,7-.82,4.98-1.51,9.52-3.97,13.94-6.75,6.31-3.97,12.11-8.64,17.72-13.5l1.13-1.01c2.78-2.46,5.55-4.98,8.26-7.57l1.01-1.01c.25-.25.57-.69.95-.06.13.25.13.44-.13.63l-3.97,3.78c-1.64,1.58-3.28,3.15-4.98,4.67l-1.96,1.77c-1.64,1.45-3.22,2.9-4.92,4.23-.32.25-.69.44-1.07.63-.32.19-.57.69-.95,1.01-6.56,5.36-13.43,10.09-21.32,13.24l-1.39.57c-1.64.63-3.28,1.07-4.98,1.32l-1.26.13c-1.64.13-3.22,0-4.67-.69-1.89-.95-3.03-2.46-3.28-4.54,0-.19,0-.44-.13-.63l.06-.06Z"/><path class="cls-9" d="M266.08,44.72c-.82,3.78-2.65,7.32-5.55,10.78-6.94,8.26-15.58,13.68-25.73,16.08h-.19c-.06,0-.13,0-.19.06,8.58,2.4,17.41,3.66,25.04,4.67l.25.06-.25.13c-.57.32-1.14.25-1.7.19h-.38c-8.51-.88-16.14-2.27-23.27-4.16-1.13-.32-2.14-.44-3.15-.38h-.06c-.32,0-.76.06-1.01-.13-.13-.06-.19-.19-.19-.38,0-.13.06-.25.13-.32.19-.19.57-.13.88-.06h.19c1.77.19,3.47-.32,5.11-.82l.5-.13c9.96-3.09,18.1-8.83,24.15-17.09,2.52-3.47,3.91-6.87,4.23-10.41.31-3.53-.82-6.87-3.03-9.21-2.14-2.27-5.11-3.41-8.64-3.28-3.66.13-7.13,1.58-10.91,4.54-3.41,2.65-6.18,6.05-8.45,10.47-3.47,6.75-5.55,14.19-6.37,22.77-.57,6.31-.25,12.55.19,19.49l.06.5c.06,1.39.13,2.77-.06,4.16v.13c-.06.63-.13,1.32-.88,1.64-.25.13-.5.19-.76.19-.5,0-1.01-.19-1.51-.63-1.77-1.51-2.78-3.47-3.53-5.17-1.96-4.42-2.9-9.14-3.66-13.56-.63-3.59-1.01-7.44-1.2-11.79-.32-6.87.25-13.81,1.64-20.68l.19-.95c.44-2.21.88-4.48,1.77-6.62v-.19l.19-.19c.06-.13.19-.5.63-.38.32.13.19.44.13.63-.82,2.71-1.32,5.49-1.77,8.2l-.57,2.84c-.44,2.4-.63,4.86-.82,7.25l-.06.57c-.25,3.34-.25,7,.06,11.48.38,5.55,1.01,10.15,1.96,14.44.13.69.19,1.45.25,2.14l.06.38c.06.44.25.88.44,1.32.13.25.25.5.32.76.76,2.4,1.64,5.11,3.22,7.44.5.69,1.07,1.45,1.83,2.02.13.13.25.19.38.19s.19-.13.25-.32c.19-.5.25-1.07.25-1.64.06-1.51-.06-3.03-.19-4.48-.06-.5-.13-1.01-.13-1.51-.32-5.49-.63-11.16-.06-16.84,1.07-10.97,3.91-19.93,8.77-27.37,3.03-4.67,6.94-8.14,11.6-10.28,4.04-1.83,8.58-2.65,12.36-1.2,5.61,2.27,8.64,8.26,7.25,14.63Z"/><path class="cls-8" d="M280.33,541.18c-1.58.32-3.15.76-4.73,1.07-.38.06-.5.25-.44.63,1.32,7.38,2.71,14.69,5.3,21.76.25.63.57,1.26.95,1.83.25.38.5.76,1.01.76.13,0,.31.06.38.25.06.25-.13.31-.25.38-.69.25-1.26.06-1.77-.44-.57-.57-.95-1.26-1.26-2.02-1.7-3.97-2.71-8.2-3.72-12.42-.76-3.15-1.45-6.31-1.96-9.46-.06-.5-.19-.69-.76-.5-2.4.69-4.86,1.2-7.25,2.02-1.83.63-3.72,1.07-5.55,1.77-3.09,1.2-6.18,2.46-9.14,3.97-.32.13-.44.38-.5.69-1.01,6.68-2.33,13.31-3.66,19.93-.13.57-.63,1.07-.19,1.77.06.13-.44.38-.76.38-.44,0-.38-.32-.32-.57.38-1.51.57-3.09.82-4.6l2.84-16.27v-.44l-1.96,1.01c-1.89,1.01-3.85,1.96-5.74,3.03-2.77,1.58-5.42,3.34-8.26,4.73-1.77.88-3.53,1.7-5.49,1.96-.95.13-1.89.13-2.84-.25-.57-.25-1.01-.63-1.2-1.26-.13-.38-.06-.69.13-.95.19-.19.44-.44.69-.25.25.19-.13.32-.19.5-.32.63.13,1.39.95,1.64.95.32,1.89.19,2.84,0,2.27-.5,4.29-1.64,6.31-2.77,2.27-1.26,4.48-2.59,6.69-3.91,2.58-1.51,5.17-3.03,7.88-4.29.5-.25.57-.63.63-1.07.38-2.65.88-5.3,1.45-7.95,1.58-7.13,3.85-14,7.44-20.37,2.02-3.53,4.29-6.87,7.32-9.65.63-.63,1.32-1.2,2.14-1.64,1.89-1.01,3.72-.32,4.41,1.7.57,1.7.63,3.47.69,5.23.19,4.29.25,8.58.44,12.87.19,3.85.63,7.69,1.13,11.54.06.5.25.63.76.5,3.78-.88,7.57-1.64,11.48-1.89.88-.06,1.77,0,2.65.13-3.22-.32-6.31.44-9.4.95ZM272.7,542.06c.25-.06.63,0,.57-.5v-.32c-.32-2.27-.57-4.54-.76-6.81-.5-5.68-.63-11.35-.76-17.03-.06-1.95-.06-3.91-.5-5.8-.38-1.7-.88-1.89-2.4-1.07-1.58.88-2.84,2.14-4.04,3.47-2.84,3.22-5.04,6.81-6.87,10.66-1.45,3.09-2.58,6.31-3.66,9.59-1.58,4.73-2.33,9.65-3.47,14.5-.06.19-.06.44.06.57.13.13.31,0,.44-.06,4.98-2.4,10.28-4.04,15.64-5.55,1.96-.57,3.91-1.07,5.87-1.58l-.13-.06ZM289.73,539.73c.32.06.69.06.88.38-.13.19-.25.19-.38.19-.19,0-.38,0-.5-.06v-.5Z"/><path class="cls-8" d="M351.46,542c-.32.5-.76.82-1.2,1.13l-.13.13-3.28,2.4c-1.7,1.2-3.47,2.46-5.17,3.78-1.51,1.26-2.9,2.46-4.22,3.66-.32.32-.44.63-.44,1.07s.06.95.06,1.39c.06,1.39.13,2.9.13,4.48,0,3.15-.25,6.62-1.01,10.09-.95,4.35-2.46,7.95-4.67,10.97-2.4,3.34-4.73,5.23-7.57,6.24-.82.25-1.58.38-2.27.38-1.13,0-2.08-.44-2.9-1.26-1.01-1.01-1.26-2.33-1.39-3.34-.19-1.89.06-3.85.82-5.8l.38-.95c.25-.82.57-1.64,1.01-2.4l.76-1.32,1.13-1.96,1.26-2.02.76-1.14c.69-1.01,1.45-2.02,2.27-3.09l2.33-2.96c2.02-2.46,4.23-4.86,6.75-7.32.13-.13.25-.32.32-.5.06-.19.06-.32.06-.57l-.38-4.67c-.25-2.65-.5-5.36-.63-8.07-.13-3.09-.13-5.93-.06-8.7v-.19c0-.19,0-.38-.06-.57-.25.38-.44.76-.63,1.14l-1.51,2.71c-2.77,4.98-5.87,10.22-9.9,14.76-3.22,3.59-6.5,6.37-10.09,8.32l-1.32.69c-1.77.88-3.28,1.39-4.79,1.64-3.53.5-6.18-1.45-6.75-4.92-.38-2.65.19-5.11.88-7.38,1.26-4.42,3.41-8.77,6.5-13.24,4.35-6.37,9.08-11.29,14.44-15.13,2.65-1.89,6.24-4.16,10.59-5.05.57-.13,1.14-.19,1.64-.25,1.01-.06,1.96,0,2.84.25,2.14.63,3.41,2.21,3.59,4.42.19,2.08-.25,4.04-1.32,5.87-.57,1.01-1.26,2.02-2.14,3.15-.32.38-.44.76-.44,1.26-.13,1.7-.13,3.34-.13,5.04.06,5.05.5,9.96.95,14.44l.38,3.03v.19c0,.19,0,.38.13.5l.5-.44,1.14-.95c2.84-2.46,5.93-4.6,8.96-6.68l1.7-1.14,1.26-.95c.13-.06.19-.13.13-.25v-.13c-.06-.06-.13-.13-.13-.19s.06-.13.13-.13c.25-.13.5-.06.69.13,0-.06.06-.13.06-.19.25.25.06.5,0,.57ZM331.54,531.78c1.51-1.01,2.4-2.02,2.9-3.28,0,0,0-.06.06-.13.06-.06.13-.19.19-.19.57.06.76-.32,1.01-.69l.19-.38,1.01-1.45c1.2-1.89,1.89-3.53,2.02-5.36.13-1.7-.25-3.09-1.07-3.97s-2.08-1.32-3.66-1.32h-.19c-.25,0-.5,0-.76.06-2.4.32-4.79,1.2-7.38,2.65-7.13,3.97-13.24,9.84-18.79,17.97-2.84,4.16-4.98,8.51-6.31,12.93-.69,2.14-.88,3.91-.82,5.55,0,.57.06,1.13.19,1.64.5,2.33,2.27,3.85,4.54,3.85,1.7,0,3.28-.63,4.6-1.26,4.73-2.27,8.96-5.74,12.93-10.53,3.59-4.35,6.5-9.33,9.14-14.06l.95-1.77.38-.76-.38.19c-.32.19-.57.38-.88.44h-.06v-.25l.19-.19v.32ZM335.51,563.56c.06-1.77.06-3.53,0-5.17-.06-1.13-.06-2.14-.19-3.22l-.63.63c-2.27,2.27-4.23,4.41-5.99,6.5l-1.01,1.26c-3.03,3.78-6.05,7.95-7.95,12.74-.82,1.96-1.64,4.6-1.2,7.44.25,1.45.88,2.52,1.83,3.09s2.14.57,3.53.06c1.2-.44,2.33-1.14,3.59-2.21,2.46-2.14,4.29-4.98,5.8-8.96,1.33-3.47,2.02-7.32,2.27-12.04,0-.06-.06-.06-.06-.13Z"/><path class="cls-8" d="M356.94,569.62v-.95l.25-1.07c.13-.69.25-1.39.44-2.08,1.13-3.59,2.96-6.81,5.11-9.9,4.86-6.87,10.72-12.74,17.72-17.47l.82-.57c.57-.38,1.13-.76,1.7-1.2-.25.06-.5.13-.76.13-.25.06-.5.06-.76.06-.88.06-1.7.19-2.58.19-1.26.06-2.59,0-3.85-.32-1.77-.38-3.22-1.2-3.72-3.15-.25-1.07-.06-2.14.32-3.22.76-2.02,2.02-3.72,3.47-5.3,3.66-3.91,7.95-6.94,12.68-9.33,1.45-.76,3.03-1.45,4.54-2.02l1.13-.44c.5-.19,1.01-.44,1.58-.38.44.06.57-.38.88-.5.63-.25,1.32-.63,1.96-.57.95.06,1.64-.57,2.52-.63s1.77-.25,2.65-.32c.44,0,.95-.06,1.39-.06,2.33-.06,4.67.13,6.87,1.01,1.58.63,2.9,1.64,3.47,3.34.57,1.83-.19,3.41-1.2,4.79-1.01,1.39-2.21,2.71-3.59,3.78-1.01.76-1.89,1.7-3.03,2.21.13-.63.32-.88,1.26-1.64,1.83-1.45,3.41-3.15,4.79-5.11.44-.63.76-1.32.95-2.02.57-1.83,0-3.28-1.7-4.16-1.89-1.01-3.97-1.32-6.12-1.45h-1.26c-1.7.06-3.41.32-5.11.57-.88.13-1.77.38-2.59.63l-1.26.38c-4.54,1.39-8.77,3.53-12.74,6.18-3.47,2.33-6.68,4.98-9.21,8.39-1.01,1.39-1.83,2.84-2.08,4.54-.19,1.58.31,2.46,1.83,3.03,1.58.57,3.22.63,4.86.57,2.52-.13,4.98-.44,7.44-.88.44-.06.82-.19,1.2-.38.95-.38,1.89-.57,2.84-.76.5-.13.76.13.88.57.13.5-.32.57-.63.63-2.14.38-4.1,1.33-5.99,2.4l-2.27,1.26c-1.32.76-2.46,1.64-3.66,2.52-.88.69-1.77,1.45-2.65,2.21l-.88.76c-4.04,3.59-7.76,7.57-10.91,11.98-.32.38-.57.82-.82,1.2-2.21,3.22-4.16,6.56-5.04,10.41-.19.69-.25,1.39-.25,2.08,0,2.84,1.26,4.29,4.04,4.73,2.4.38,4.73-.13,7-.82,4.98-1.51,9.52-3.97,13.94-6.75,6.31-3.97,12.11-8.64,17.72-13.5l1.13-1.01c2.78-2.46,5.55-4.98,8.26-7.57l1.01-1.01c.25-.25.57-.69.95-.06.13.25.13.44-.13.63l-3.97,3.78c-1.64,1.58-3.28,3.15-4.98,4.67l-1.96,1.77c-1.64,1.45-3.22,2.9-4.92,4.23-.32.25-.69.44-1.07.63-.32.19-.57.69-.95,1.01-6.56,5.36-13.43,10.09-21.32,13.24l-1.39.57c-1.64.63-3.28,1.07-4.98,1.32l-1.26.13c-1.64.13-3.22,0-4.67-.69-1.89-.95-3.03-2.46-3.28-4.54,0-.19,0-.44-.13-.63l.06-.06Z"/><path class="cls-8" d="M476,509.71c0,.13-.06.19-.13.25-.13.06-.32,0-.44-.06-.13-.06-.19-.06-.25-.06-.06.06-.13.19-.13.32v.19c-.44,1.07-.63,2.27-.76,3.41v.06c-.44,3.22-.76,6.43-1.01,9.58l-.13,1.58c-.5,5.99-1.26,12.3-2.21,18.67-1.13,7.63-2.27,14.5-3.47,20.94-.44,2.21-.95,4.54-1.77,6.75-.32.88-.82,2.02-1.7,2.96-1.26,1.32-2.71,1.7-4.35,1.13-.5-.19-.88-.38-1.33-.63-.82-.5-1.58-1.14-2.27-1.77-.44-.38-.88-.76-1.26-1.2-2.4-2.52-4.35-5.36-6.05-7.76-4.98-7.06-9.65-15.01-14.25-24.34l-4.48-9.08-2.27-4.73v-.19c-.06-.13-.13-.25-.25-.38,0,.44.06.95.06,1.39l.19,4.23.19,4.73.57,9.84.57,8.07.63,9.08.76,12.68.19,4.73.19,3.78c0,.5.06,1.01.06,1.51v.57c.06.32-.13.5-.44.57-.13,0-.19,0-.25-.06s-.13-.19-.13-.25v-.25c0-.44-.06-.82-.06-1.26l-.19-2.27-.19-4.16-.57-8.89-.57-8.45-.38-6.05-.63-9.65-.76-12.87-.19-4.92v-.95c-.06-.76-.13-1.51-.06-2.27.06-1.01-.38-1.77-.95-2.65l-.19-.19c0,.13.06.25.13.38.06.19.13.38.06.63,0,.06-.06.19-.06.25l-.13-.19c-.69-.88-1.13-1.7-1.32-2.52-.06-.25,0-.38.06-.44.19-.13.57.06.63.13.38.19.63.5.88.82,0,.06.06.06.06.13l.38.44.06.06v-4.04c0-.32,0-.57-.19-.82-.32-.31-.19-.69-.06-1.07v-.19c0-.06.06-.25.44-.19l.32.19.19.32.19,1.64v1.13c.13,1.39.25,2.78.32,4.16,0,.82.38,1.51.76,2.14l.19.57c1.32,2.4,2.52,4.92,3.72,7.38l.76,1.45.76,1.51,1.51,3.09.88,1.7c5.17,10.15,10.47,18.92,16.21,26.61,1.83,2.46,3.66,4.86,6.12,6.68.63.5,1.45,1.07,2.46,1.32.82.19,1.51,0,2.14-.57.63-.57,1.14-1.32,1.58-2.4,1.07-2.58,1.58-5.36,2.08-8.07,0-.13.06-.25.06-.38,1.39-7.63,2.65-15.64,3.78-23.84.69-5.23,1.26-10.59,1.77-15.77l.19-2.84.19-1.51c.25-2.65.5-5.36,1.13-8.01.13-.57.32-1.26.69-1.83.32-.5.76-.63,1.32-.38v.13c.32.13.44.32.38.5Z"/><path class="cls-8" d="M535.34,546.16c-.06,0-.06.06-.13.06.38.25-.06.95-.19,1.39l-.76,1.58c-1.26,2.08-2.33,4.1-3.91,5.99-2.14,2.58-4.29,5.11-7,7.13-3.15,2.4-6.5,4.42-10.41,5.23-1.45.32-2.9.44-4.35.38-6.37-.19-12.17-3.72-15.2-9.78-1.7-3.34-2.4-6.94-2.33-10.59,0-.76.06-1.45.13-2.21.82-7.69,3.78-14.44,8.96-20.18,3.28-3.66,7.19-6.31,12.05-7.38,1.45-.32,2.9-.44,4.29-.38,1.39.13,2.78.44,4.16,1.07,3.41,1.58,5.3,4.29,5.61,8.07.32,3.78-.82,7.19-2.71,10.41-.44.76-.88,1.58-1.39,2.33-1.2,1.64-2.33,3.34-3.97,4.6-.38.32-.76.5-1.2.57-.38.06-.76-.06-.88-.44-.13-.38.13-.63.57-.95-.06.25-.06.32-.06.38-.06.19-.13.44.06.57.19.13.38-.06.57-.13.5-.32.95-.69,1.32-1.13,3.41-3.97,5.99-8.39,6.75-13.69.13-.76.19-1.45.19-2.21,0-2.14-.69-4.23-2.33-5.99-2.08-2.21-4.73-2.84-7.63-2.71-3.91.19-7.32,1.7-10.41,3.97-5.74,4.16-9.21,9.9-11.35,16.52-.88,2.65-1.45,5.36-1.58,8.07-.13,2.02.06,4.04.5,6.12,1.64,7.25,5.8,12.24,13.18,14.06,1.39.38,2.77.44,4.16.38,2.08-.13,4.1-.76,6.05-1.64,3.78-1.7,7-4.23,9.84-7.13l1.39-1.51c2.33-2.59,4.29-5.42,6.05-8.39l1.07-1.77c.19-.31.44-.95.88-.69Z"/><path class="cls-8" d="M606.91,553.54l-.88.38c-.32.13-.63.19-.88.32l-6.81,2.52-14.44,5.17c-.44.13-.57.32-.57.76.13,3.22.19,6.68.19,10.22,0,4.1-.13,8.26-.57,12.49-.63,5.93-1.64,10.34-3.34,14.25-1.77,4.1-4.23,6.87-7.57,8.51-2.21,1.07-4.67,1.64-7.44,1.64h-.76c-6.24-.25-12.11-2.08-17.47-5.49-3.03-1.89-5.17-4.1-6.56-6.75-1.07-1.96-1.58-3.91-1.64-5.93-.06-1.51.19-3.09.69-4.6v-.25c.06-.38.19-.82.76-.95.06-.06.13-.25.13-.38s0-.19.06-.32l.19-.31v-.19c.13-.19.32-.38.5-.44.06,0,.13,0,.19.06.06.06.13.13.13.19,0,.13-.06.25-.13.38-.06.06-.13.13-.13.19-1.14,2.4-1.64,4.73-1.51,7,.13,1.83.63,3.59,1.58,5.36.19.38.44.76.69,1.13,1.7,2.65,4.22,4.79,7.63,6.62.44.25.88.5,1.32.69,4.41,2.14,9.08,3.22,13.81,3.34,6.43.13,11.1-2.9,13.94-9.08,1.96-4.29,2.71-8.89,3.15-12.42.63-5.05.82-10.09.82-15.2,0-3.03-.06-6.12-.13-9.21,0-.32-.06-.44-.13-.5s-.25-.06-.5.06c-5.8,2.08-12.61,4.6-19.36,7.5-1.89.82-3.78,1.7-5.49,2.52-.44.19-.82.44-1.2.63-4.04,2.08-7,3.91-9.52,5.99l-.76.57-1.01.82c-.69.57-1.32,1.2-1.89,1.89l-.32.32c-.06.06-.13.13-.19.13s-.13-.06-.19-.13c-.13-.13-.13-.32,0-.44.19-.13.32-.32.44-.5.25-.38.5-.76,1.07-.88.13,0,.13-.13.19-.32,0-.19.06-.38.19-.5,1.77-1.64,3.34-2.9,4.92-3.91,7.32-4.79,15.51-8.13,23.27-11.1,2.71-1.07,5.49-2.08,8.2-3.03l1.7-.57c.44-.19.57-.38.57-.88s-.06-1.01-.06-1.51c-.19-4.1-.38-8.26-.63-12.3l-.19-4.16c-.25-3.91-.5-8.07-.95-12.11-.13-.88-.32-1.77-.57-2.65-.06-.32-.13-.38-.19-.38s-.19.06-.38.32c-.88,1.07-1.58,2.33-2.27,3.53l-.38.57c-3.28,5.61-6.68,11.42-10.34,17.09-2.02,3.15-4.41,6.68-7.06,10.03l-1.01,1.26c-.76.88-1.58,1.77-2.59,2.46-.31.25-.76.44-1.13.63-1.45.63-2.77.25-3.66-1.01-.82-1.2-1.07-2.65-1.2-4.04-.06-.57-.06-1.07-.06-1.64-.06-2.14.19-4.23.44-6.05.63-4.54,1.64-9.08,2.65-13.43.5-2.14,1.01-4.35,1.45-6.56.69-3.41,1.39-7.06,1.45-10.72,0-.82-.06-1.77-.38-2.65-.19-.44-.32-.76-.63-.88-.32-.13-.69-.13-1.2,0-1.33.44-2.46,1.26-3.53,2.08l-.06.06c-1.39,1.07-2.71,2.21-3.97,3.41l-.95.95-.88,1.01-1.7,2.14-.95,1.2c-.32.44-.63.88-.88,1.32l-.19.38-.13.25c.19.06.38,0,.57-.06.25-.06.5-.13.82,0,.06,0,.13.06.19.06-.06,0-.06.06-.13.06-.31.19-.57.25-.82.32s-.5.13-.69.13c-.25,0-.38-.06-.44-.13-.06,0-.06-.06-.06-.19,0-.06,0-.19.06-.38.19-.5.5-.95.82-1.39,0,0,.06,0,.06-.06,0,0,0-.06.06-.13,1.2-1.83,2.65-3.47,3.91-4.79,2.08-2.21,4.16-4.35,6.75-5.99.63-.38,1.32-.76,2.14-.95,1.26-.25,2.33.25,2.84,1.39.25.63.38,1.33.44,2.21.19,2.9-.32,5.74-.76,8.51,0,.06-.06.13-.06.19-.57,3.59-1.32,7.19-2.08,10.66-.95,4.29-1.89,8.7-2.52,13.12-.25,1.89-.38,3.47-.32,4.98,0,1.01.13,1.96.25,2.84.13.95.38,1.7.69,2.33.5.88,1.01,1.07,1.96.69,1.45-.57,2.46-1.64,3.59-2.84,2.02-2.21,3.72-4.67,5.36-7.13l.82-1.2.25-.32c3.59-5.3,6.87-10.78,10.03-16.21l.76-1.26,1.89-3.22.38-.57c.5-.82,1.01-1.7,1.64-2.52.25-.32.5-.57.76-.69.25-.13.57-.19.82-.19.5.06.95.5,1.2,1.26.5,1.39.63,2.9.76,4.35,0,.13.06.25.06.38.69,6.94,1.14,13.87,1.45,19.74l.38,8.07c0,.25.06.38.13.44.06.06.19.06.44,0,2.27-.76,4.54-1.51,6.81-2.4.44-.13.88-.25,1.32-.44,4.54-1.58,9.27-3.22,13.87-4.92.76-.31,1.51-.63,2.21-1.07h.06c.38-.19.69-.38.57-.88,0-.06,0-.13.06-.19.06-.06.13-.06.19-.06.19,0,.32.06.38.25l-.32-.13c.25.5.13.95-.38,1.33-.69.5-1.45.82-2.02,1.01Z"/></svg>