<svg viewBox="0 0 620 620" xmlns="http://www.w3.org/2000/svg"><g stroke-miterlimit="10"><path d="m313.93 84.85s-.09 0-.14 0z" fill="#fff" stroke="#000" stroke-width="2"/><path d="m313.93 483.24s-.09 0-.14 0z" fill="#fff" stroke="#000" stroke-width="2"/><path d="m313.78 84.85c-77.29.11-139.93 89.25-139.93 199.2 0-109.77 62.76-199.09 139.93-199.2z" fill="#fff" stroke="#93278f" stroke-width="2"/><path d="m313.93 85.85c-76.69 0-139.07 88.91-139.07 198.2s62.39 198.2 139.07 198.2 139.07-88.91 139.07-198.2-62.39-198.2-139.07-198.2zm-.07 376.86c-65.51 0-118.81-80.05-118.81-178.45 0-.04 0-.07 0-.11s0-.07 0-.11c0-98.44 52.97-178.24 118.31-178.24h.25.25c65.51 0 118.8 80.05 118.8 178.45s-53.3 178.45-118.8 178.45z" fill="#fff" stroke="#93278f" stroke-width="2"/><path d="m454 284.05c0-110.01-62.71-199.2-140.07-199.2 77.24 0 140.07 89.36 140.07 199.2z" fill="#fff" stroke="#93278f" stroke-width="2"/><path d="m431.66 284.26s0-.07 0-.11c0 17.15-1.63 33.74-4.63 49.43 3.01-15.67 4.64-32.22 4.64-49.33z" fill="#fff" stroke="#000" stroke-width="2"/><path d="m173.85 284.05c0 109.95 62.64 199.09 139.93 199.2-77.17-.11-139.93-89.43-139.93-199.2z" fill="#fff" stroke="#93278f" stroke-width="2"/><path d="m313.93 483.24c77.36 0 140.07-89.18 140.07-199.2 0 109.84-62.84 199.2-140.07 199.2z" fill="#fff" stroke="#93278f" stroke-width="2"/><path d="m313.36 462.28c53.93 0 99.42-54.36 113.67-128.69-14.22 73.92-59.57 128.12-113.17 128.12-64.96 0-117.81-79.6-117.81-177.45s52.85-177.45 117.81-177.45 117.77 79.55 117.8 177.34c0-.04 0-.07 0-.11 0-98.31-52.83-178.03-118.05-178.23-65.37.2-118.52 80.12-118.55 178.34.04 98.39 52.99 178.13 118.3 178.13z" fill="#fff" stroke="#93278f" stroke-width="2"/><path d="m132.17 106.57 25.46 5.5c-.24 4.32.34 282.39-.14 286.46-1.12 11.04-10.13 75.31-67.98 80.97-15.14-.69-49.78-.8-58.16-34.51-.18 0-7.51-29.94 4.56-48.29 9.25-13.24 23-30.33 56.12-27.52v18.22c-8.41.82-27.66-1.98-38.81 19.5-7.1 15.78-4.48 61.17 45.01 48.65 1.46-.55 33.63-15.3 37.64-46.82 3.48-27.3-3.16-289.72-3.7-302.17z" fill="#fff" stroke="#0ff" stroke-width="2"/><path d="m422.35 51.12h34.75v142.49s2.09-38.92-34.75-82.37c-.35-4.52 0-60.12 0-60.12z" fill="#fff" stroke="#f00" stroke-width="2"/><path d="m457.1 388.23 1.39 59.22h134.84v32.53h-171.33v-30.58s29.89-34.06 35.1-61.17z" fill="#fff" stroke="#f00" stroke-width="2"/><path d="m222.54 184.05v170.88" fill="none" stroke="#0ff" stroke-width="7"/><path d="m402.03 184.05v170.88" fill="none" stroke="#0ff" stroke-width="7"/><path d="m241.71 167.67v203.87" fill="none" stroke="#0ff" stroke-width="7"/><path d="m381.86 167.67v203.87" fill="none" stroke="#0ff" stroke-width="7"/><path d="m346.05 236.74v-7.8h-12.74v-13.76h-7.3v13.76h-8.76v-25.61h-7.3v25.61h-28.79v7.8h28.79v2.79h-28.79v7.8h28.79v2.79h-28.79v7.8h28.79v4.49h-28.79v7.8h64.89v-7.8h-12.74v-4.49h12.74v-7.8h-12.74v-2.79h12.74v-7.8h-12.74v-2.79zm-20.03 25.69h-8.76v-4.49h8.76zm0-12.3h-8.76v-2.79h8.76zm0-10.59h-8.76v-2.79h8.76z" fill="#f3ffff" stroke="#000"/><path d="m346.05 284.05v-7.8h-64.89v7.8h25.36v4.75h-25.36v7.8h25.36v4.75h-25.36v7.8h25.36v116.77h13.61v-116.77h5.88v21.39h7.3v-21.39h12.74v-7.8h-12.74v-4.75h12.74v-7.8h-12.74v-4.75zm-20.03 17.29h-5.88v-4.75h5.88zm0-12.55h-5.88v-4.75h5.88z" fill="#f3ffff" stroke="#000"/><path d="m322 203.33v12.47h-17.28v-12.47c-13.56 2.5-23.52 10.75-23.52 20.55h64.31c0-9.8-9.95-18.05-23.52-20.55z" fill="#f3ffff" stroke="#000"/><path d="m304.69 336.98v-14.14h17.28v14.14c13.57-2.84 23.53-12.19 23.53-23.3h-64.34c0 11.11 9.96 20.46 23.53 23.3z" fill="#f3ffff" stroke="#000"/><rect fill="none" height="174.79" rx="49.58" stroke="#0ff" stroke-width="11" width="99.17" x="264.34" y="185.69"/></g><path d="m71.29 562.23c-5.07 0-8.9-3.8-8.9-8.84l-.06-33.54c0-2.94-.31-4.27-.49-4.8-.8-2.31-.12-4.87 1.72-6.47 1.93-1.69 4.39-2.62 6.92-2.62 5.07 0 8.9 3.77 8.9 8.78l.05 32.14c3.83-.35 7.29-.9 9.42-1.28.35-.06.7-.09 1.05-.09 1.04 0 2.06.27 2.98.79 3.64 2.08 4.63 6.88 3.71 10.33-.9 3.41-3.63 5.61-6.94 5.61h-18.35z" fill="#0ff"/><path d="m114.17 562.92c-5.07 0-8.9-3.77-8.9-8.77l-.06-34.3c0-2.94-.31-4.27-.49-4.8-.8-2.31-.12-4.87 1.72-6.47 1.93-1.69 4.39-2.62 6.92-2.62 5.11 0 8.96 3.77 8.96 8.78v34.31c0 2.31.14 3.87.43 4.62.89 2.34.23 5-1.66 6.65-1.93 1.69-4.39 2.62-6.91 2.62z" fill="#0ff"/><path d="m153.02 562.92c-6.48 0-8.52-4.02-9.1-5.74l-12.58-39.56c-.03-.09-.06-.18-.08-.27-.03-.12-.14-.35-.21-.47-2.1-2.37-2-5.97.25-8.22 1.93-1.93 4.49-2.96 7.4-2.96 4.46 0 7.98 2.51 9 6.43l5.83 19.68s5.21-17.85 5.21-17.87c-.31-1.04-.34-2.15-.07-3.22.47-1.83 1.77-3.33 3.51-4.05 1.62-.67 3.11-.96 4.95-.96 3.56 0 5.66 1.41 6.8 2.6 1.46 1.52 2.22 3.57 2.16 5.79-.02 1.57-.4 3.07-.81 4.47-.02.07-.04.14-.07.21l-13.12 39.23c-.52 1.54-1.64 2.81-3.11 3.51-1.93.92-4 1.4-5.99 1.4z" fill="#0ff"/><path d="m193.18 562.23c-5.07 0-8.9-3.8-8.9-8.84l-.06-33.03c0-2.14-.16-3.58-.49-4.55-.79-2.28-.13-4.82 1.67-6.43 2.65-2.37 5.25-2.85 8.35-2.85h19.05c3.33 0 6.04 2.28 6.74 5.66.75 3.62-.89 8.6-4.86 10.32-.76.33-1.57.5-2.39.5-.34 0-.68-.03-1.02-.09-3.55-.61-6.83-1.03-10.01-1.28v4.13h9.51c2.75 0 5.15 1.87 5.82 4.54.5 2.01.5 4.1-.02 6.04-.7 2.62-3.08 4.45-5.8 4.45h-9.49l.02 6.37c4.73-.39 9.08-1.05 11.15-1.39.32-.05.65-.08.97-.08 1.07 0 2.12.29 3.05.84 3.62 2.14 4.6 6.86 3.68 10.2-.9 3.29-3.68 5.5-6.93 5.5h-20.05z" fill="#0ff"/><path d="m263.68 562.92c-7.9 0-10.63-6.75-11.93-10l-2.98-7.62c-.28-.71-.71-1.77-.97-2.12v6.05c0 1.81.22 3.81.42 4.39.87 2.22.33 4.72-1.35 6.41-1.81 1.81-4.48 2.89-7.14 2.89-5.05 0-8.84-3.6-9.02-8.55 0-.07 0-.15 0-.22v-34.31c0-1.73-.22-4.01-.46-4.69-1.04-2.83.18-5.98 2.85-7.37 2.7-1.42 6.53-2.07 12.06-2.07 10.76 0 23.59 3.11 23.59 17.92 0 5.21-2.02 9.82-5.5 13.13.63 1.08 1.07 2.07 1.39 2.78.02.04 2.77 6.55 2.77 6.55.12 0 .24.02.36.03 2.02.23 3.79 1.46 4.7 3.28.68 1.36 1.01 2.78 1.01 4.32 0 5.69-5.08 9.22-9.78 9.22zm-15.88-34.32c1.74-.34 3.39-1.47 3.39-4.54 0-2.28 0-3.61-3.39-3.98z" fill="#0ff"/><path d="m71.29 560.23c-4 0-6.9-2.88-6.9-6.84l-.06-33.54c0-3.07-.33-4.66-.6-5.45-.53-1.54-.08-3.24 1.15-4.31 1.57-1.37 3.55-2.13 5.6-2.13 4 0 6.9 2.85 6.9 6.78l.06 34.3c4.74-.32 9.21-1.02 11.77-1.48.23-.04.47-.06.7-.06.69 0 1.38.18 1.98.53 2.67 1.53 3.51 5.31 2.77 8.08-.66 2.5-2.63 4.12-5.01 4.12h-18.35z" fill="#f3ffff"/><path d="m114.17 560.92c-3.93 0-6.9-2.91-6.9-6.77l-.06-34.3c0-3.07-.33-4.66-.6-5.45-.53-1.54-.08-3.24 1.15-4.31 1.57-1.37 3.55-2.13 5.6-2.13 4.04 0 6.96 2.85 6.96 6.78v34.31c0 1.05 0 3.85.56 5.33.59 1.56.15 3.33-1.11 4.43-1.57 1.37-3.55 2.12-5.6 2.12z" fill="#f3ffff"/><path d="m153.02 560.92c-5.18 0-6.76-3.06-7.2-4.38l-12.57-39.53c-.02-.06-.04-.12-.05-.18-.13-.49-.45-1.06-.6-1.23-1.45-1.58-1.39-4.02.12-5.53 1.55-1.55 3.62-2.37 5.98-2.37 3.59 0 6.29 1.9 7.08 4.96l7.78 26.23s7.13-24.44 7.15-24.49c.06-.19.11-.4.14-.57-.37-.82-.45-1.74-.22-2.63.31-1.22 1.18-2.22 2.34-2.7 1.38-.58 2.6-.81 4.18-.81 2.29 0 4.09.67 5.36 1.98.77.8 1.67 2.21 1.61 4.37-.01 1.33-.36 2.68-.73 3.95-.01.05-13.16 39.37-13.16 39.37-.34 1.03-1.09 1.88-2.07 2.34-2.1 1-3.94 1.21-5.13 1.21z" fill="#f3ffff"/><path d="m193.18 560.23c-4 0-6.9-2.88-6.9-6.84l-.06-33.04c0-2.39-.19-3.99-.6-5.2-.53-1.52-.09-3.21 1.12-4.29 2.18-1.95 4.3-2.34 7.02-2.34h19.05c2.36 0 4.28 1.64 4.78 4.07.6 2.87-.75 6.8-3.7 8.08-.5.22-1.05.33-1.59.33-.23 0-.45-.02-.68-.06-4.42-.76-8.43-1.23-12.35-1.45v8.27h11.51c1.83 0 3.43 1.25 3.88 3.03.42 1.68.42 3.42-.02 5.03-.47 1.75-2.05 2.97-3.86 2.97h-11.5l.04 10.52c5.6-.34 11.06-1.17 13.46-1.56.22-.04.43-.05.65-.05.71 0 1.42.19 2.04.56 2.67 1.58 3.5 5.28 2.77 7.95-.67 2.45-2.63 4.03-5 4.03h-20.05z" fill="#f3ffff"/><path d="m263.68 560.92c-6.55 0-8.85-5.69-10.08-8.75l-2.97-7.62c-1.18-2.95-1.42-3.56-4.17-3.56h-.67s0 8.23 0 8.23c0 2.01.25 4.35.54 5.09.58 1.48.23 3.17-.89 4.29-.54.54-2.55 2.31-5.73 2.31-3.93 0-6.88-2.79-7.02-6.63 0-.05 0-34.45 0-34.45 0-1.83-.23-4.43-.58-5.37-.69-1.88.12-3.99 1.9-4.92 2.37-1.24 6.01-1.84 11.13-1.84s21.59 0 21.59 15.92c0 5.31-2.24 9.82-6.12 12.78.89 1.25 1.58 2.62 2.18 3.94l3.18 7.51c.05.12.09.23.14.33.32-.08.64-.12.97-.12.15 0 .3 0 .44.02 1.35.15 2.53.97 3.13 2.19.72 1.44.8 2.64.8 3.43 0 4.46-4.04 7.22-7.78 7.22zm-16.96-30.19c4.02-.08 6.47-2.57 6.47-6.66 0-3.5-.54-5.99-7.39-6.09v12.75z" fill="#f3ffff"/><path d="m330.04 564.2c-4.35 0-7.87-2.51-8.98-6.4l-2.48-8.17h-7.67l-1.85 6.18s-.02.09-.03.13c.32 1.05.35 2.18.07 3.27-.49 1.87-1.85 3.39-3.65 4.09-1.65.63-3.12.9-4.93.9-6.12 0-8.9-4.32-8.9-8.33 0-1.23.26-2.57.9-4.63.02-.05 13.42-39.37 13.42-39.37.57-1.67 1.85-3.01 3.49-3.65 2.12-.83 4.2-1.23 6.35-1.23 4.23 0 7.58 2.33 8.75 6.08l12.66 39.13c.18.53.31.81.37.92 1.94 2.28 1.91 5.66-.11 7.9-1.87 2.08-4.44 3.19-7.42 3.19z" fill="#f00"/><path d="m367.36 564.33c-14.7 0-23.47-10.71-23.47-28.64 0-26.63 18.06-28.7 23.59-28.7 8.99 0 18.3 4.58 18.3 12.24 0 3.96-2.62 7.24-6.36 8.44 4.54 1.53 8.63 5.98 8.63 14.96 0 12.98-8.32 21.7-20.69 21.7zm.26-43.01c-1.51 0-6.11 0-6.11 14.37s4.55 14.31 6.05 14.31c1.17 0 3.33 0 3.33-6.42 0-1.64-.21-2.5-.34-2.89-1.39-.43-2.61-1.35-3.38-2.58-.84-1.36-1.15-3-.78-4.56.74-3.12 3.13-5.36 6.39-6.17-1.58-.88-2.72-2.45-3.01-4.31-.19-1.23-.53-1.74-2.14-1.74z" fill="#f00"/><path d="m407.21 563.51c-5.07 0-8.9-3.8-8.9-8.84l-.06-33.03c0-2.13-.16-3.58-.49-4.55-.79-2.28-.13-4.82 1.67-6.43 2.65-2.37 5.25-2.85 8.35-2.85h19.05c3.33 0 6.04 2.28 6.74 5.66.75 3.62-.89 8.6-4.86 10.32-.76.33-1.57.5-2.39.5-.34 0-.68-.03-1.02-.09-3.55-.61-6.83-1.03-10.01-1.28v4.13h9.51c2.75 0 5.15 1.87 5.82 4.54.5 2.01.5 4.1-.02 6.04-.7 2.62-3.08 4.45-5.8 4.45h-9.49l.02 6.37c4.73-.39 9.08-1.05 11.15-1.39.32-.05.65-.08.97-.08 1.07 0 2.12.29 3.05.84 3.62 2.14 4.6 6.86 3.68 10.2-.9 3.29-3.68 5.5-6.93 5.5h-20.05z" fill="#f00"/><path d="m452.3 564.2c-2.19 0-4.25-.7-5.95-2.02-2.01-1.56-2.82-4.22-2.01-6.64.13-.4.45-1.72.45-5.23l-.06-28.87c0-3.74-.19-5.52-.34-6.36-.37-2.02.31-4.09 1.82-5.49 2.12-1.97 4.98-2.26 6.49-2.26 3.24 0 5.06 1.3 6.01 2.39.15.17.29.35.41.53 3.4 4.89 8.26 11.89 12.93 18.79l-.33-9.65c-.33-5.41 1.49-9.51 5.01-11.27.51-.25 1.05-.44 1.61-.54.64-.12 1.29-.18 1.92-.18 1.31 0 2.57.25 3.73.73 2.34.98 3.82 3.32 3.68 5.86-.02.38.02 1.24.06 1.93.04.8.08 1.61.08 2.29v32.16c0 3.14.07 4.94.25 6.21.25 1.76-.29 3.54-1.48 4.86-2.15 2.39-5.48 2.65-6.81 2.65-1.48 0-2.8-.29-3.94-.86-.75-.38-1.42-.91-1.95-1.56-4.56-5.56-9.25-12.17-13.34-18.28l.33 11.53c.08 2.52-.81 4.89-2.51 6.66-1.6 1.66-3.81 2.6-6.07 2.6z" fill="#f00"/><path d="m520.84 564.33c-5.33 0-22.71-2.07-22.71-28.64s17.62-28.7 23.03-28.7c10.58 0 18.55 5.32 18.55 12.37 0 4.94-4.19 8.8-9.54 8.8-.37 0-.75-.02-1.14-.06-2.72-.27-4.92-2.34-5.34-5.04-.17-1.05-.27-1.74-2.46-1.74-4.77 0-5.48 9-5.48 14.37 0 4.3.52 14.31 5.35 14.31 1.4 0 3.18-.56 3.69-3.25.48-2.57 2.58-4.53 5.17-4.85.5-.06 1-.09 1.49-.09 5.48 0 9.46 3.6 9.46 8.57 0 6.86-7.5 13.95-20.06 13.95z" fill="#f00"/><path d="m568.52 564.2c-5.07 0-8.9-3.77-8.9-8.77l-.06-11.94c-.03-.06-11.42-23.21-11.44-23.26-.08-.14-.56-.82-1.09-1.39-2.11-2.28-2.14-5.79-.06-8.09 2.04-2.27 5.08-3.63 8.12-3.63 4 0 7 2.11 8.92 6.26l4.93 10.62 4.14-8.79c-.29-1.05-.29-2.17.02-3.23.48-1.69 1.68-3.09 3.29-3.81 1.59-.72 3.21-1.04 5.26-1.04 4.71 0 8.29 3.44 8.52 8.17v.29c0 1.91-.67 3.95-2.05 6.25l-11.51 21.49v7.01c0 2.78.27 4.14.49 4.79.75 2.17.19 4.58-1.43 6.2-1.81 1.81-4.48 2.89-7.14 2.89z" fill="#f00"/><path d="m330.04 562.2c-3.44 0-6.2-1.95-7.06-4.96l-2.91-9.6h-10.64l-2.3 7.68c-.1.36-.15.59-.18.75.37.82.45 1.75.22 2.64-.33 1.25-1.23 2.26-2.44 2.73-1.4.54-2.66.77-4.21.77-4.77 0-6.9-3.18-6.9-6.33 0-1.02.24-2.18.81-4.03.01-.03 13.4-39.32 13.4-39.32.38-1.12 1.23-2.01 2.33-2.44 1.88-.74 3.72-1.09 5.62-1.09 3.39 0 5.95 1.77 6.85 4.73l12.66 39.1c.38 1.14.67 1.51.67 1.51 1.39 1.52 1.39 3.83 0 5.36-1.48 1.65-3.54 2.52-5.94 2.52zm-13.36-25.59-2-6.49-1.96 6.49z" fill="#f3ffff"/><path d="m367.36 562.33c-13.64 0-21.47-9.71-21.47-26.64s8.07-26.7 21.59-26.7c8.01 0 16.3 3.83 16.3 10.24 0 3.88-3.31 6.93-7.54 6.93-.3 0-.62-.01-.94-.05-1.82-.18-3.28-1.56-3.56-3.36-.23-1.47-.91-3.43-4.12-3.43-2.22 0-8.11 0-8.11 16.37s6.06 16.31 8.05 16.31c1.6 0 5.33 0 5.33-8.42 0-1.64-.2-4.45-1.51-4.73-1.05-.23-1.97-.87-2.54-1.78s-.76-2.01-.51-3.06c.73-3.06 3.5-4.97 7.23-4.97 5.07 0 10.5 3.57 10.5 13.59s-5.78 19.7-18.69 19.7z" fill="#f3ffff"/><path d="m407.21 561.51c-4 0-6.9-2.88-6.9-6.84l-.06-33.04c0-2.39-.19-3.99-.6-5.2-.53-1.52-.09-3.21 1.11-4.29 2.18-1.95 4.3-2.34 7.02-2.34h19.05c2.36 0 4.28 1.63 4.78 4.07.6 2.87-.75 6.8-3.7 8.08-.5.22-1.05.33-1.59.33-.23 0-.45-.02-.68-.06-4.42-.76-8.43-1.23-12.35-1.45v8.27h11.51c1.83 0 3.43 1.25 3.88 3.03.42 1.68.42 3.42-.02 5.03-.47 1.75-2.05 2.97-3.86 2.97h-11.5l.04 10.52c5.6-.34 11.06-1.17 13.46-1.56.22-.04.43-.05.65-.05.71 0 1.42.19 2.04.56 2.67 1.58 3.5 5.28 2.77 7.95-.67 2.45-2.63 4.03-5 4.03h-20.05z" fill="#f3ffff"/><path d="m452.3 562.2c-1.75 0-3.38-.55-4.72-1.6-1.34-1.04-1.88-2.81-1.34-4.42.25-.75.55-2.38.55-5.86l-.06-28.88c0-3.89-.2-5.8-.38-6.72-.25-1.35.21-2.73 1.21-3.66 1.62-1.5 3.91-1.73 5.13-1.73 2 0 3.51.58 4.51 1.71.1.11.19.23.28.35 4.08 5.87 11 15.83 16.81 24.59l-.57-16.68c-.29-4.58 1.13-8 3.91-9.39.34-.17.7-.29 1.07-.36.52-.09 1.05-.14 1.57-.14 1.05 0 2.04.19 2.96.58 1.56.65 2.54 2.21 2.46 3.9-.03.48.02 1.36.06 2.14.04.77.07 1.54.07 2.19v32.16c0 2.74.05 4.9.28 6.5.17 1.17-.19 2.36-.99 3.24-1.61 1.79-4.26 1.99-5.32 1.99-1.16 0-2.18-.22-3.04-.65-.5-.25-.94-.61-1.3-1.04-6.03-7.35-12.29-16.57-17.08-24.01l.53 18.59c.07 1.98-.63 3.84-1.95 5.21-1.23 1.27-2.92 2-4.63 2z" fill="#f3ffff"/><path d="m520.84 562.33c-12.97 0-20.71-9.96-20.71-26.64s7.86-26.7 21.03-26.7c9.43 0 16.55 4.46 16.55 10.37 0 3.34-2.82 6.8-7.54 6.8-.3 0-.62-.01-.94-.05-1.82-.18-3.28-1.56-3.56-3.36-.27-1.7-1-3.43-4.44-3.43-4.96 0-7.48 5.51-7.48 16.37 0 7.44 1.28 16.31 7.35 16.31 2.97 0 5.08-1.82 5.66-4.88.32-1.71 1.72-3.02 3.45-3.23.42-.05.84-.08 1.25-.08 4.32 0 7.46 2.76 7.46 6.57 0 7.38-9.38 11.95-18.06 11.95z" fill="#f3ffff"/><path d="m568.52 562.2c-4 0-6.9-2.85-6.9-6.77l-.06-12.5-.06-.09c-.08-.13-.16-.27-.23-.41l-11.29-22.96c-.17-.35-.77-1.24-1.49-2.01-1.41-1.52-1.43-3.86-.04-5.4.62-.7 2.95-2.96 6.63-2.96 4.75 0 6.52 3.84 7.1 5.1l6.74 14.5 6.11-12.96c.09-.2.15-.36.19-.47-.39-.86-.47-1.84-.21-2.76.32-1.13 1.12-2.06 2.19-2.54 1.33-.61 2.66-.86 4.43-.86 3.66 0 6.34 2.58 6.52 6.27v.19c0 1.52-.6 3.29-1.79 5.26l-11.77 21.98v7.51c0 2.46.2 4.29.6 5.44.5 1.45.13 3.05-.95 4.13-.54.54-2.55 2.31-5.73 2.31z" fill="#f3ffff"/></svg>