<svg viewBox="0 0 620 620" xmlns="http://www.w3.org/2000/svg"><g stroke-miterlimit="10"><g fill="#fff" stroke="#000"><path d="m313.93 106.24s-.09 0-.14 0z" stroke-width="2"/><path d="m313.93 504.63s-.09 0-.14 0z" stroke-width="2"/><path d="m313.78 106.24c-77.29.11-139.93 89.25-139.93 199.2 0-109.77 62.76-199.09 139.93-199.2z" stroke-width="2"/><path d="m313.93 107.24c-76.69 0-139.07 88.91-139.07 198.2s62.39 198.2 139.07 198.2 139.07-88.91 139.07-198.2-62.39-198.2-139.07-198.2zm-.07 376.86c-65.51 0-118.81-80.05-118.81-178.45 0-.04 0-.07 0-.11s0-.07 0-.11c0-98.44 52.97-178.24 118.31-178.24h.25.25c65.51 0 118.8 80.05 118.8 178.45s-53.3 178.45-118.8 178.45z" stroke-width="2"/><path d="m454 305.43c0-110.01-62.71-199.2-140.07-199.2 77.24 0 140.07 89.36 140.07 199.2z" stroke-width="2"/><path d="m431.66 305.65s0-.07 0-.11c0 17.15-1.63 33.74-4.63 49.43 3.01-15.67 4.64-32.22 4.64-49.33z" stroke-width="2"/><path d="m173.85 305.43c0 109.95 62.64 199.09 139.93 199.2-77.17-.11-139.93-89.43-139.93-199.2z" stroke-width="2"/><path d="m313.93 504.63c77.36 0 140.07-89.18 140.07-199.2 0 109.84-62.84 199.2-140.07 199.2z" stroke-width="2"/><path d="m313.36 483.67c53.93 0 99.42-54.36 113.67-128.69-14.22 73.92-59.57 128.12-113.17 128.12-64.96 0-117.81-79.6-117.81-177.45s52.85-177.45 117.81-177.45 117.77 79.55 117.8 177.34c0-.04 0-.07 0-.11 0-98.31-52.83-178.03-118.05-178.23-65.37.2-118.52 80.12-118.55 178.34.04 98.39 52.99 178.13 118.3 178.13z" stroke-width="2"/><path d="m132.17 127.96 25.46 5.5c-.24 4.32.34 282.39-.14 286.46-1.12 11.04-10.13 75.31-67.98 80.97-15.14-.69-49.78-.8-58.16-34.51-.18 0-7.51-29.94 4.56-48.29 9.25-13.24 23-30.33 56.12-27.52v18.22c-8.41.82-27.66-1.98-38.81 19.5-7.1 15.78-4.48 61.17 45.01 48.65 1.46-.55 33.63-15.3 37.64-46.82 3.48-27.3-3.16-289.72-3.7-302.17z" stroke-width="2"/><path d="m422.35 72.51h34.75v142.49s2.09-38.92-34.75-82.37c-.35-4.52 0-60.12 0-60.12z" stroke-width="2"/><path d="m457.1 409.62 1.39 59.22h134.84v32.53h-171.33v-30.58s29.89-34.06 35.1-61.17z" stroke-width="2"/></g><path d="m222.54 205.44v170.88" fill="none" stroke="#0ff" stroke-width="7"/><path d="m402.03 205.44v170.88" fill="none" stroke="#0ff" stroke-width="7"/><path d="m241.71 189.05v203.88" fill="none" stroke="#0ff" stroke-width="7"/><path d="m381.86 189.05v203.88" fill="none" stroke="#0ff" stroke-width="7"/><path d="m346.05 258.13v-7.8h-12.74v-13.76h-7.3v13.76h-8.76v-25.61h-7.3v25.61h-28.79v7.8h28.79v2.79h-28.79v7.8h28.79v2.79h-28.79v7.8h28.79v4.49h-28.79v7.8h64.89v-7.8h-12.74v-4.49h12.74v-7.8h-12.74v-2.79h12.74v-7.8h-12.74v-2.79zm-20.03 25.69h-8.76v-4.49h8.76zm0-12.3h-8.76v-2.79h8.76zm0-10.59h-8.76v-2.79h8.76z" fill="#fff" stroke="#000"/><path d="m346.05 305.43v-7.8h-64.89v7.8h25.36v4.75h-25.36v7.8h25.36v4.75h-25.36v7.8h25.36v116.77h13.61v-116.77h5.88v21.39h7.3v-21.39h12.74v-7.8h-12.74v-4.75h12.74v-7.8h-12.74v-4.75zm-20.03 17.3h-5.88v-4.75h5.88zm0-12.55h-5.88v-4.75h5.88z" fill="#fff" stroke="#000"/><path d="m322 224.72v12.47h-17.28v-12.47c-13.56 2.5-23.52 10.75-23.52 20.55h64.31c0-9.8-9.95-18.05-23.52-20.55z" fill="#fff" stroke="#000"/><path d="m304.69 358.37v-14.14h17.28v14.14c13.57-2.84 23.53-12.19 23.53-23.3h-64.34c0 11.11 9.96 20.46 23.53 23.3z" fill="#fff" stroke="#000"/><rect fill="none" height="174.79" rx="49.58" stroke="#0ff" stroke-width="11" width="99.17" x="264.34" y="207.07"/></g></svg>